<?xml version="1.0" encoding="UTF-8"?>
<svg version="1.1" viewBox="0 0 2000 1500" xmlns="http://www.w3.org/2000/svg">
<rect width="2e3" height="1500" fill="#fff"/>
<g transform="matrix(.75 0 0 .75 249.09 282.75)">
<svg width="2e3" height="1247" data-background-color="#ffffff" viewBox="0 0 396 247" xmlns="http://www.w3.org/2000/svg" xmlns:xlink="http://www.w3.org/1999/xlink">
<g transform="translate(.24 -.1)">
<svg width="395.52" height="247.2" viewBox="0 0 395.52 247.2">
<svg/>
<svg width="395.52" height="247.2" viewBox="0 0 395.52 247.2">
<g transform="translate(75.544 101.96)">
<svg width="244.43" height="43.282" viewBox="0 0 244.43135999999998 43.28206165796617">
<svg width="244.43" height="43.282" viewBox="0 0 244.43135999999998 43.28206165796617">
<svg width="244.43" height="43.282" viewBox="0 0 244.43135999999998 43.28206165796617">
<svg width="244.43" height="43.282" viewBox="0 0 244.43135999999998 43.28206165796617">
<svg width="244.43" height="43.282" viewBox="0 0 244.43135999999998 43.28206165796617">
<svg width="244.43" height="43.282" viewBox="0 0 244.43135999999998 43.28206165796617">
<g>
<svg width="244.43" height="43.282" data-palette-color="#000000" viewBox="-0.85 -32.15 239.43 42.39999999999999">
<path class="wordmark-text-0" d="m13.95 4.75q-2.05 0-5.1-2.45-2.15-0.35-3.67-0.92-1.53-0.58-2.53-1.38-1.4-1.2-2.45-3.2t-1.05-3.85q0-1.4 0.65-2.5 1.5-2.65 3.8-2.65 1.75 0 2.05 2.95 0.35 2.75 0.58 4.37 0.22 1.63 0.37 2.13 0.75 2.45 2.55 4.15 2.1 0.45 4.55 0.45 5.4 0 10.35-2.05 2.1-0.9 4.1-2.35t3.3-3.2 1.3-3.4q0-2.35-4.15-3.65l-8.8-2q-2.7-0.6-4.32-2.13-1.63-1.52-1.63-3.47 0-3 3.75-6 1.9-1.55 4.45-2.63 2.55-1.07 5.38-1.65 2.82-0.57 5.42-0.57 3.7 0 6.33 1.15 2.62 1.15 3.27 3.35 0.15 0.5 0.15 1.1 0 3.05-3.05 4.25-1.85 0.75-3.15 0.75-0.8 0-1.25-0.3-0.1-0.1-0.1-0.25 0-0.35 1.4-0.4 0.85-0.05 1.4-0.15t0.8-0.2q1.9-1 1.9-2.95 0-1-0.55-2.1-1.55-2.85-7.75-2.85-2.25 0-4.65 0.47-2.4 0.48-4.55 1.4-2.15 0.93-3.65 2.33-2.6 2.4-2.6 4.3 0 1.45 1.43 2.57 1.42 1.13 4.32 1.68l5.9 1.1q3.4 0.65 5.5 1.92 2.1 1.28 2.1 3.88 0 2.3-1.15 4.3t-3.07 3.57q-1.93 1.58-4.38 2.63-5.55 2.45-13.1 2.45-0.95 0-1.9-0.05t-1.85-0.15q0.7 0.4 1.78 0.8 1.07 0.4 2.47 0.75 0.15 0.05 0.15 0.2 0 0.45-1.05 0.45zm-6.6-3.85q-1.35-1.5-2.1-3.1-1.1-2.5-1.65-6.15-0.4-2.65-0.85-2.65-0.4 0-1.07 0.6-0.68 0.6-0.68 2.55 0 3.8 2.7 6.6 1.35 1.4 3.65 2.15zm33.15-0.6q-1.6 0-2.53-0.78-0.92-0.77-0.92-2.77 0-1.15 0.7-2.93 0.7-1.77 1.75-3.82t2.1-4.05q-0.65 0.15-1.15 0.15-1.5 0-1.5-1.15 0-0.55 0.42-0.85 0.43-0.3 0.78-0.35 0 0 0.12 0 0.13 0 0.33-0.05h2.9q0.9-1.15 1.85-2.45 1.35-1.7 2.15-2h0.15q0.35 0 1 0.35 0.8 0.45 0.8 0.9 0 0.65-2.4 3.35 0.45 0.05 1.3 0.05t2.1 0q0.6 0 1.72 0 1.13 0 2.35-0.03 1.23-0.02 2.13-0.05 0.9-0.02 1-0.02 0.15 0.05 0.15 0.15 0 0.45-5.9 1.2-3.35 0.45-5.13 0.7-1.77 0.25-1.92 0.3-0.7 0.6-1.7 2.05t-2 3.25-1.68 3.42q-0.67 1.63-0.67 2.53 0 0.8 0.6 1.32 0.6 0.53 1.95 0.53 0.9 0 2.15-0.4t2.37-0.93q1.13-0.52 1.63-0.82 1.3-0.8 2.87-2.13 1.58-1.32 3.13-3.02 0.7-0.7 0.95-0.7 0.15 0 0.15 0.2 0 0.4-0.75 1.3-1.2 1.45-2.68 2.77-1.47 1.33-3.27 2.43-2.05 1.25-3.93 1.8-1.87 0.55-3.47 0.55zm15.1-0.05q-1.2 0-2.4-0.85t-1.35-2q-0.5-3.85 4.85-9.15 5.3-5.3 9.55-5.3 1.15 0 1.8 0.55 0.35 0.35 0.52 0.95 0.18 0.6 0.27 0.6 0.21 0 0.36-0.08 0.14-0.07 0.35-0.07 0.6 0 1.04 0.45 0.46 0.45 0.5 0.8 0.06 0.1-3.19 4.95-3.25 4.75-2.95 6.45 0.25 1.15 1.1 1.15 2.6 0 9.5-8.6 0.15-0.2 0.29-0.2 0.25 0 0.25 0.35 0 0.4-0.44 1-6.35 8.55-9.75 8.55-0.45 0-0.85-0.15-2.2-0.85-2.2-3.3 0-0.85 0.2-1.7l-3.1 3q-1.4 1.4-2.53 2-1.12 0.6-1.82 0.6zm-0.45-1.1q2.9 0 7.9-6.35l5.29-7.3q-0.39-0.7-1.29-0.7-3.05 0-8.25 4.9-5.4 5-4.85 8.25 0.25 1.2 1.2 1.2zm9.19 11.1q-1.5 0-2.55-1.25t-1.1-2.7q0.15-0.6 0.45-0.6t0.35 0.78q0.05 0.77 0.8 1.52t1.5 0.75q4.25 0 7.75-5.25 0.95-1.4 2.35-4.08 1.4-2.67 3.1-6.72l2.7-6.5q-5-0.05-5-1.2 0-0.55 0.5-0.88 0.5-0.32 0.8-0.32 0.05 0 1.25 0.02 1.2 0.03 3.45 0.08 4.9-10.9 9-10.9 1.6 0 3.15 1.5 0.4 0.4 0.4 1.05 0 1.55-0.9 1.55-0.25 0-0.5-0.4-0.2-0.35-0.65-0.58-0.45-0.22-0.85-0.22-1.5 0-2.62 1.12-1.13 1.13-2.1 2.93-0.98 1.8-2.08 3.95h0.6q5.45 0 7.25-0.15 0.2 0.05 0.2 0.2 0 0.4-3.55 1.1-1.4 0.2-2.75 0.45t-2.75 0.5q-0.65 1.4-1.6 3.32-0.95 1.93-2.15 4.28-2.35 4.4-3.85 7t-2.1 3.45q-4.35 6.2-8.5 6.2zm23.95-10q-1.2 0-2.4-0.85t-1.35-2q-0.5-3.85 4.85-9.15 5.3-5.3 9.55-5.3 1.15 0 1.8 0.55 0.35 0.35 0.53 0.95 0.17 0.6 0.27 0.6 0.2 0 0.35-0.08 0.15-0.07 0.35-0.07 0.6 0 1.05 0.45t0.5 0.8q0.05 0.1-3.2 4.95-3.25 4.75-2.95 6.45 0.25 1.15 1.1 1.15 2.6 0 9.5-8.6 0.15-0.2 0.3-0.2 0.25 0 0.25 0.35 0 0.4-0.45 1-6.35 8.55-9.75 8.55-0.45 0-0.85-0.15-2.2-0.85-2.2-3.3 0-0.85 0.2-1.7l-3.1 3q-1.4 1.4-2.53 2-1.12 0.6-1.82 0.6zm-0.45-1.1q2.9 0 7.9-6.35l5.3-7.3q-0.4-0.7-1.3-0.7-3.05 0-8.25 4.9-5.4 5-4.85 8.25 0.25 1.2 1.2 1.2zm28.1-16.45q-0.85 0-1.48-0.52-0.62-0.53-0.62-1.23 0-1.45 1.9-1.45 0.7 0 1.4 0.5t0.7 1.2q0 0.6-0.65 1.05t-1.25 0.45zm-19.6 27.55q-1.5 0-2.75-0.95-1.3-1-1.3-2 0-0.95 0.45-0.95 0.05 0 1 1.25 1 1.3 2.3 1.3 4 0 9.1-9.05 1.55-2.8 2.62-5.08 1.08-2.27 1.68-4.07-0.45 0.5-1.3 1.32-0.85 0.83-1.63 1.45-0.77 0.63-1.12 0.63-0.15 0-0.15-0.15 0-0.45 0.65-1.05 0.95-0.8 2.25-2.65 1.45-2.05 1.65-2.25l1.65-1.75q1-0.95 2-0.95 1.35 0 1.35 1.1 0 0.2-1.75 3.3l-2.2 3.8q-3.85 7.35-5.95 10.25-4.55 6.5-8.55 6.5zm45.35-7.8q-3.06 0-7.25-1.45l-6.96-2.5q-2.35-0.7-3.75-0.7-0.95 0.45-2.42 1.02-1.48 0.58-3.48 1.28-0.6 0.15-1.05 0.15-1.2 0-1.2-0.9 0-1.1 1.3-2.1 1.2-0.8 2.4-1 1-0.2 2.23-0.25 1.22-0.05 2.62 0.05 11.7-7.05 15.31-9.9 3.39-2.65 5.09-4.75 2.35-2.8 2.85-6 0.06-0.25 0.08-0.45t0.02-0.4q0-2.7-3.4-2.7-3.3 0-8.25 2.25-4.5 2.05-7.2 4.45-0.19 0.2-0.44 0.2-0.5 0-0.5-0.6 0-0.4 0.29-0.6 3.46-2.95 8.9-5.4 6-2.65 10.1-2.65 4.6 0 4.6 3.55 0 0.25-0.02 0.52-0.03 0.28-0.08 0.58-0.6 3.5-4.54 7.5-1.11 1.1-2.86 2.6t-4.1 3.4q-5.25 4.1-14.54 9 2.19 0.2 7.79 2.1 5.35 1.8 8.75 1.8 1.96 0 3.65-0.75 2.2-0.9 2.2-2.65 0-2-3.05-3.1-0.4-0.15-0.4-0.4 0-0.65 0.85-0.4 4.15 1.2 4.15 4 0 2.35-2.8 3.95-2.3 1.25-4.89 1.25zm13.99-2q-1 0-1.9-0.15-4.15-0.55-4.15-5.9 0-5.25 3.9-11.6 2.4-4 6.9-7.8 4.3-3.7 8.7-5.7-0.2-0.2-0.2-0.4 0-0.35 0.8-0.5t2.05-0.05q1.45-0.5 3.85-0.5 3.75 0 3.75 1.4-0.1 0.7-1 0.3-1.65-0.6-3.05-0.55 1.55 0.5 2.85 1.75 2.8 2.65 2.8 6.75 0 3.75-2.25 7.9-2.15 4.1-5.85 7.35-8.65 7.7-17.2 7.7zm-1.3-1.25q7.1 0.6 16.15-7.35 7.8-6.85 7.8-14.9 0-3.8-1.6-5.1-2.45-1.9-4.6-2.3-4.65 1.45-9.8 6.35-3.8 3.7-6.3 7.55-4.1 6.35-4.1 11.75 0 3.8 2.45 4zm30.1 1.25q-1 0-1.9-0.15-4.15-0.55-4.15-5.9 0-5.25 3.9-11.6 2.4-4 6.9-7.8 4.3-3.7 8.7-5.7-0.2-0.2-0.2-0.4 0-0.35 0.8-0.5t2.05-0.05q1.45-0.5 3.85-0.5 3.75 0 3.75 1.4-0.1 0.7-1 0.3-1.65-0.6-3.05-0.55 1.55 0.5 2.85 1.75 2.8 2.65 2.8 6.75 0 3.75-2.25 7.9-2.15 4.1-5.85 7.35-8.65 7.7-17.2 7.7zm-1.3-1.25q7.1 0.6 16.15-7.35 7.8-6.85 7.8-14.9 0-3.8-1.6-5.1-2.45-1.9-4.6-2.3-4.65 1.45-9.8 6.35-3.8 3.7-6.3 7.55-4.1 6.35-4.1 11.75 0 3.8 2.45 4zm30.1 1.25q-1 0-1.9-0.15-4.15-0.55-4.15-5.9 0-5.25 3.9-11.6 2.4-4 6.9-7.8 4.3-3.7 8.7-5.7-0.2-0.2-0.2-0.4 0-0.35 0.8-0.5t2.05-0.05q1.45-0.5 3.85-0.5 3.75 0 3.75 1.4-0.1 0.7-1 0.3-1.65-0.6-3.05-0.55 1.55 0.5 2.85 1.75 2.8 2.65 2.8 6.75 0 3.75-2.25 7.9-2.15 4.1-5.85 7.35-8.65 7.7-17.2 7.7zm-1.3-1.25q7.1 0.6 16.15-7.35 7.8-6.85 7.8-14.9 0-3.8-1.6-5.1-2.45-1.9-4.6-2.3-4.65 1.45-9.8 6.35-3.8 3.7-6.3 7.55-4.1 6.35-4.1 11.75 0 3.8 2.45 4z" data-fill-palette-color="primary"/>
</svg>
</g>
</svg>
</svg>
</svg>
</svg>
</svg>
</svg>
</g>
<path d="m209.43 95.959v-61.738h178.76v178.76h-178.76v-61.738h3.903v57.835h170.95v-170.95h-170.95v57.835z" stroke="transparent" data-fill-palette-color="tertiary"/>
</svg>
</svg>
<rect width="395.52" height="247.2" fill="none" visibility="hidden"/>
</g>
</svg>
</g>
</svg>
